<?xml version="1.0" encoding="UTF-8" standalone="no"?>
<!-- Created with Inkscape (http://www.inkscape.org/) -->

<svg
   width="150"
   height="150"
   viewBox="0 0 39.6875 39.6875"
   version="1.1"
   id="svg1"
   inkscape:version="1.4.3 (0d15f75042, 2025-12-25)"
   sodipodi:docname="graphix_mini.svg"
   xmlns:inkscape="http://www.inkscape.org/namespaces/inkscape"
   xmlns:sodipodi="http://sodipodi.sourceforge.net/DTD/sodipodi-0.dtd"
   xmlns:xlink="http://www.w3.org/1999/xlink"
   xmlns="http://www.w3.org/2000/svg"
   xmlns:svg="http://www.w3.org/2000/svg">
  <sodipodi:namedview
     id="namedview1"
     pagecolor="#ffffff"
     bordercolor="#000000"
     borderopacity="0.25"
     inkscape:showpageshadow="2"
     inkscape:pageopacity="0.0"
     inkscape:pagecheckerboard="0"
     inkscape:deskcolor="#d1d1d1"
     inkscape:document-units="mm"
     inkscape:zoom="1.5159123"
     inkscape:cx="187.67577"
     inkscape:cy="107.52601"
     inkscape:window-width="1536"
     inkscape:window-height="792"
     inkscape:window-x="0"
     inkscape:window-y="0"
     inkscape:window-maximized="1"
     inkscape:current-layer="layer1" />
  <defs
     id="defs1">
    <linearGradient
       inkscape:collect="always"
       xlink:href="#linearGradient9"
       id="linearGradient10"
       x1="211.44579"
       y1="93.436172"
       x2="246.14218"
       y2="93.436172"
       gradientUnits="userSpaceOnUse"
       gradientTransform="translate(-208.95023,-73.592421)" />
    <linearGradient
       id="linearGradient9"
       inkscape:collect="always">
      <stop
         style="stop-color:#00764e;stop-opacity:1;"
         offset="0.00129199"
         id="stop9" />
      <stop
         style="stop-color:#00d6a5;stop-opacity:1;"
         offset="1"
         id="stop10" />
    </linearGradient>
  </defs>
  <g
     inkscape:label="Layer 1"
     inkscape:groupmode="layer"
     id="layer1">
    <path
       style="font-weight:bold;font-size:50.8px;line-height:0;font-family:FreeSerif;-inkscape-font-specification:'FreeSerif Bold';letter-spacing:0px;word-spacing:0px;fill:url(#linearGradient10);stroke-width:1.5875;stroke-linecap:square;stroke-miterlimit:18.1"
       d="m 27.59075,5.82295 q 0,-1.2192 -0.9652,-1.524 -0.3556,-0.1016 -2.6924,-0.3556 v -1.27 h 12.7 v 1.27 q -2.8448,0.254 -4.5212,1.5748 -1.6764,1.3208 -5.0292,5.842 l -4.064,5.6388 9.2456,14.3764 q 1.8288,2.7432 2.6924,3.556 0.9144,0.762 2.2352,0.8128 v 1.27 h -17.272 v -1.27 q 1.3208,-0.1016 1.4224,-0.1016 2.6416,-0.1524 2.6416,-1.4224 0,-1.0668 -1.0668,-2.7432 l -5.1308,-8.2296 -1.9304,2.5908 q -2.8448,3.8608 -3.81,5.4356 -0.9652,1.5748 -0.9652,2.3876 0,0.9652 0.8636,1.4224 0.9144,0.4064 3.2512,0.6604 v 1.27 h -12.7 v -1.27 q 1.8796,-0.2032 2.9972,-0.8128 1.1176,-0.6096 2.286,-2.032 l 8.89,-11.2268 -10.0584,-14.7828 q -1.1684,-1.7272 -1.9304,-2.286 -0.762,-0.5588 -2.1336,-0.6604 v -1.27 h 17.5768 v 1.27 q -1.4224,0.1016 -1.5748,0.1016 -1.3716,0.0508 -1.9304,0.4064 -0.508,0.3556 -0.508,1.1684 0,0.7112 0.762,1.8796 l 4.9276,7.62 q 0.8128,-1.1684 1.9812,-2.7432 1.1684,-1.5748 1.6764,-2.286 0.5588,-0.7112 1.1176,-1.6256 0.6096,-0.9144 0.8128,-1.4732 0.2032,-0.6096 0.2032,-1.1684 z"
       id="path9" />
  </g>
</svg>
