<?xml version="1.0" encoding="UTF-8"?>
<!-- Created with Inkscape (http://www.inkscape.org/) -->
<svg width="620" height="180" version="1.1" viewBox="0 0 164.04 47.625" xmlns="http://www.w3.org/2000/svg" xmlns:xlink="http://www.w3.org/1999/xlink">
 <defs>
  <linearGradient id="linearGradient1" x1="211.45" x2="246.14" y1="93.436" y2="93.436" gradientTransform="translate(-83.07 -74.983)" gradientUnits="userSpaceOnUse">
   <stop stop-color="#00764e" offset=".001292"/>
   <stop stop-color="#00d6a5" offset="1"/>
  </linearGradient>
 </defs>
 <g stroke-linecap="square" stroke-miterlimit="18.1" stroke-width="1.5875">
  <path d="m153.47 4.4323q0-1.2192-0.9652-1.524-0.3556-0.1016-2.6924-0.3556v-1.27h12.7v1.27q-2.8448 0.254-4.5212 1.5748t-5.0292 5.842l-4.064 5.6388 9.2456 14.376q1.8288 2.7432 2.6924 3.556 0.9144 0.762 2.2352 0.8128v1.27h-17.272v-1.27q1.3208-0.1016 1.4224-0.1016 2.6416-0.1524 2.6416-1.4224 0-1.0668-1.0668-2.7432l-5.1308-8.2296-1.9304 2.5908q-2.8448 3.8608-3.81 5.4356t-0.9652 2.3876q0 0.9652 0.8636 1.4224 0.9144 0.4064 3.2512 0.6604v1.27h-12.7v-1.27q1.8796-0.2032 2.9972-0.8128t2.286-2.032l8.89-11.227-10.058-14.783q-1.1684-1.7272-1.9304-2.286t-2.1336-0.6604v-1.27h17.577v1.27q-1.4224 0.1016-1.5748 0.1016-1.3716 0.0508-1.9304 0.4064-0.508 0.3556-0.508 1.1684 0 0.7112 0.762 1.8796l4.9276 7.62q0.8128-1.1684 1.9812-2.7432t1.6764-2.286q0.5588-0.7112 1.1176-1.6256 0.6096-0.9144 0.8128-1.4732 0.2032-0.6096 0.2032-1.1684z" fill="url(#linearGradient1)"/>
  <g transform="translate(-83.07 -74.983)" fill="#e3dedb" aria-label="graphiX">
   <path d="m86.325 107.86q0-0.9652 0.6604-1.778 0.7112-0.8128 3.8608-3.7592-2.54-1.27-3.6576-2.8448-1.0668-1.5748-1.0668-3.9624 0-3.4544 2.4384-5.842 2.4892-2.4384 6.0452-2.4384 1.9812 0 4.2164 0.8636 2.286 0.8128 3.7592 0.8128h3.9116v1.9812h-4.2164q0.9652 2.1844 0.9652 4.2672 0 3.5052-2.3876 5.6896-2.3368 2.1844-5.5372 2.1844-0.6096 0-2.8956-0.254-1.016 0.3048-2.032 1.3716t-1.016 1.8288q0 1.2192 3.9624 1.3716l6.5532 0.3048q2.794 0.1016 4.4704 1.5748t1.6764 3.8608q0 3.6576-4.2164 6.096-4.1656 2.4892-8.9916 2.4892-3.6068 0-6.1976-1.4732-2.5908-1.4224-2.5908-3.4544 0-1.4224 1.1176-2.8448 1.1684-1.3716 3.8608-3.3528-1.5748-0.762-2.1336-1.3208t-0.5588-1.3716zm3.7592 2.8448q-1.5748 1.8796-2.032 2.6924t-0.4572 1.6764q0 1.6764 2.032 2.6924t5.3848 1.016q4.318 0 6.9596-1.3716 2.6416-1.3716 2.6416-3.556 0-1.3716-1.4224-1.9304t-4.8768-0.5588q-5.1308 0-8.2296-0.6604zm9.2456-13.564q0-0.8636-0.2032-2.0828t-0.7112-2.7432q-0.508-1.5748-1.6256-2.5908-1.1176-1.0668-2.6924-1.0668-1.778 0-2.794 1.27-0.9652 1.27-0.9652 3.5052 0 4.3688 1.6256 6.35 1.6256 1.9812 3.556 1.9812 1.778 0 2.794-1.2192 1.016-1.27 1.016-3.4036zm22.962-4.9276q-0.762 0-1.8796-0.8636-1.1176-0.9144-1.4732-0.9144-1.016 0-2.286 1.4732t-1.27 2.6924v11.43q0 2.1844 0.8636 2.9464t3.4544 0.8636v0.762h-12.192v-0.762q2.4384-0.4572 2.9972-1.016 0.6096-0.5588 0.6096-2.4892v-12.7q0-1.6764-0.4064-2.3368-0.3556-0.7112-1.3208-0.7112-0.8128 0-1.778 0.2032v-0.8128q4.064-1.3208 7.5184-2.7432l0.254 0.1016v4.6736q1.8796-2.6924 3.2004-3.7084 1.3208-1.0668 2.8956-1.0668 1.3208 0 2.032 0.7112 0.762 0.7112 0.762 1.9812 0 1.0668-0.5588 1.6764-0.508 0.6096-1.4224 0.6096zm3.5052 13.462q0-0.9144 0.2032-1.6764 0.2032-0.8128 0.7112-1.4732 0.508-0.7112 0.9652-1.27t1.3716-1.1176q0.9144-0.6096 1.524-0.9652 0.6096-0.4064 1.8288-0.9144 1.27-0.5588 1.9304-0.8128 0.6604-0.3048 2.0828-0.8636t2.0828-0.8128v-3.0988q0-4.2164-3.8608-4.2164-1.524 0-2.5908 0.762-1.0668 0.7112-1.0668 1.7272 0 0.4064 0.1016 1.1176 0.1524 0.7112 0.1524 0.9144 0 0.8636-0.7112 1.524-0.6604 0.6096-1.5748 0.6096-0.8636 0-1.524-0.6604t-0.6604-1.524q0-2.3876 2.4384-4.0132 2.4892-1.6764 6.096-1.6764 4.1656 0 5.7404 2.032 1.5748 1.9812 1.5748 6.096v9.906q0 1.6764 0.3048 2.3368 0.3556 0.6096 1.2192 0.6096 1.0668 0 2.2352-0.9652v1.3208q-1.3208 1.4732-2.3368 2.032-0.9652 0.508-2.2352 0.508-1.5748 0-2.3368-0.8636-0.7112-0.8636-0.9144-2.8448-4.3688 3.7084-7.4168 3.7084-2.3368 0-3.8608-1.524-1.4732-1.524-1.4732-3.9116zm12.7-1.3208v-7.366q-4.572 1.6764-6.4008 3.2512-1.8288 1.5748-1.8288 3.81 0 2.0828 1.016 3.0988t2.1844 1.016q1.7272 0 3.7084-1.1684 0.8128-0.4572 1.0668-0.9652t0.254-1.6764zm8.3312-13.716v-0.8128q3.2004-0.9652 7.3152-2.5908l0.3048 0.1016v3.9116q3.2512-4.0132 7.3152-4.0132 3.7084 0 6.096 3.048t2.3876 7.7724q0 5.5372-3.0988 9.2964-3.048 3.7592-7.5692 3.7592-1.6256 0-2.7432-0.4572-1.0668-0.4572-2.3876-1.7272v7.9756q0 2.3876 0.8128 3.048 0.8128 0.7112 3.6576 0.762v0.9144h-12.294v-0.8636q2.2352-0.2032 2.8956-0.8636t0.6604-2.6416v-23.774q0-1.778-0.4064-2.3368t-1.6764-0.5588q-0.8128 0-1.27 0.0508zm7.62 2.9972v12.497q0 1.1176 1.7272 2.2352 1.778 1.1176 3.556 1.1176 2.7432 0 4.4196-2.5908 1.7272-2.6416 1.7272-6.858 0-4.4196-1.7272-7.0612-1.6764-2.6924-4.5212-2.6924-1.778 0-3.5052 1.1176-1.6764 1.1176-1.6764 2.2352zm24.587-0.4572v12.243q0 2.6416 0.6096 3.4036t2.8448 1.016v0.762h-10.973v-0.762q2.1844-0.3048 2.6924-1.016 0.5588-0.7112 0.5588-3.4036v-23.927q0-1.6256-0.4572-2.1336-0.4064-0.508-1.8796-0.508-0.3556 0-0.8636 0.1016v-0.8128q3.6068-0.9652 7.2136-2.2352l0.254 0.1524v15.443q1.7272-2.286 3.4544-3.2512 1.778-1.016 4.0132-1.016 6.2484 0 6.2484 8.0772v10.109q0 2.6416 0.4572 3.3528 0.508 0.6604 2.5908 1.0668v0.762h-10.77v-0.762q2.1844-0.2032 2.794-1.016 0.6604-0.8128 0.6604-3.4036v-10.058q0-5.3848-3.81-5.3848-1.4732 0-2.794 0.762-1.27 0.7112-2.8448 2.4384zm20.422-2.54q-1.1176 0-2.1336 0.1524v-0.762q3.556-1.016 7.874-2.794l0.2032 0.1524v18.034q0 2.7432 0.6096 3.5052 0.6604 0.7112 3.1496 0.9144v0.762h-12.04v-0.762q2.6416-0.1524 3.302-0.9144 0.7112-0.762 0.7112-3.5052v-11.786q0-1.6764-0.4064-2.3368-0.3556-0.6604-1.27-0.6604zm3.3528-14.732q1.1176 0 1.8796 0.762t0.762 1.8288q0 1.1176-0.762 1.8796-0.762 0.7112-1.8796 0.7112-1.0668 0-1.8288-0.762-0.7112-0.762-0.7112-1.8288t0.762-1.8288 1.778-0.762z" fill="#e3dedb"/>
  </g>
 </g>
</svg>
